<!DOCTYPE svg PUBLIC "-//W3C//DTD SVG 1.1//EN" "http://www.w3.org/Graphics/SVG/1.1/DTD/svg11.dtd">
<!-- Uploaded to: SVG Repo, www.svgrepo.com, Transformed by: SVG Repo Mixer Tools -->
<svg width="800px" height="800px" viewBox="-2.8 -2.8 33.60 33.60" version="1.1" xmlns="http://www.w3.org/2000/svg" xmlns:xlink="http://www.w3.org/1999/xlink" xmlns:sketch="http://www.bohemiancoding.com/sketch/ns" fill="#000000" transform="rotate(90)">
<g id="SVGRepo_bgCarrier" stroke-width="0">
<path transform="translate(-2.8, -2.8), scale(1.05)" d="M16,26.846579586320065C19.11425825999258,26.669814570742115,22.773844012374603,28.921054606402247,25.075587880554952,26.815864461555837C27.384550785473216,24.704071738027224,26.120577635571586,20.8771075885103,25.942474710151664,17.753126546411313C25.811125648503616,15.44922290463483,24.921272031723632,13.460360472771045,24.189399777353245,11.271847834043644C23.17780263469478,8.246875758946812,23.874189808105747,3.6917135356331467,20.87607294149159,2.6030996976381875C17.877331315874937,1.5142590101487678,15.451432088628211,5.3969921260554,12.769926591673839,7.1254462474430404C10.87825803794525,8.344784530249182,9.13427218375678,9.500714191169756,7.608494028446353,11.155161768417145C5.524529101813892,13.414868208659197,2.6599172768992982,15.343365699341469,2.3689709852132683,18.40351819012682C2.038110555298722,21.883484760032175,3.04492125670111,26.056931897834133,6.01668981210385,27.897645782407608C8.949810547681633,29.71442120164166,12.555345767272309,27.042097847259093,16,26.846579586320065" fill="#b2bdf5" strokewidth="0"/>
</g>
<g id="SVGRepo_tracerCarrier" stroke-linecap="round" stroke-linejoin="round"/>
<g id="SVGRepo_iconCarrier"> <title>align-left</title> <desc>Created with Sketch Beta.</desc> <defs> </defs> <g id="Page-1" stroke-width="0.00028" fill="none" fill-rule="evenodd" sketch:type="MSPage"> <g id="Icon-Set" sketch:type="MSLayerGroup" transform="translate(-308.000000, -206.000000)" fill="#6181ff"> <path d="M335,222 L309,222 C308.447,222 308,222.448 308,223 C308,223.553 308.447,224 309,224 L335,224 C335.553,224 336,223.553 336,223 C336,222.448 335.553,222 335,222 L335,222 Z M324,230 L309,230 C308.447,230 308,230.447 308,231 C308,231.553 308.447,232 309,232 L324,232 C324.553,232 325,231.553 325,231 C325,230.447 324.553,230 324,230 L324,230 Z M309,208 L335,208 C335.553,208 336,207.553 336,207 C336,206.448 335.553,206 335,206 L309,206 C308.447,206 308,206.448 308,207 C308,207.553 308.447,208 309,208 L309,208 Z M309,216 L327,216 C327.553,216 328,215.553 328,215 C328,214.448 327.553,214 327,214 L309,214 C308.447,214 308,214.448 308,215 C308,215.553 308.447,216 309,216 L309,216 Z" id="align-left" sketch:type="MSShapeGroup"> </path> </g> </g> </g>
</svg>